<?xml version="1.0" encoding="iso-8859-1"?>
<!-- Uploaded to: SVG Repo, www.svgrepo.com, Generator: SVG Repo Mixer Tools -->
<svg fill="#000000" height="800px" width="800px" version="1.1" id="Layer_1" xmlns="http://www.w3.org/2000/svg" xmlns:xlink="http://www.w3.org/1999/xlink" 
	 viewBox="0 0 490.667 490.667" xml:space="preserve">
<g>
	<g>
		<g>
			<path d="M277.333,320H132.416l45.792-45.792c4.093-4.237,3.975-10.99-0.262-15.083c-4.134-3.992-10.687-3.992-14.82,0l-64,64
				c-4.164,4.165-4.164,10.917,0,15.083l64,64c4.237,4.093,10.99,3.976,15.083-0.262c3.993-4.134,3.993-10.687,0-14.821
				l-45.792-45.792h144.917c5.891,0,10.667-4.776,10.667-10.667S283.224,320,277.333,320z"/>
			<path d="M327.541,88.459c-4.237-4.093-10.99-3.976-15.083,0.262c-3.993,4.134-3.993,10.687,0,14.821l45.792,45.792H213.333
				c-5.891,0-10.667,4.776-10.667,10.667c0,5.891,4.776,10.667,10.667,10.667h144.917l-45.792,45.792
				c-4.237,4.093-4.354,10.845-0.262,15.083s10.845,4.354,15.083,0.262c0.089-0.086,0.176-0.173,0.262-0.262l64-64
				c4.164-4.165,4.164-10.917,0-15.083L327.541,88.459z"/>
			<path d="M245.333,0C110.048,0,0,110.059,0,245.333s110.048,245.333,245.333,245.333s245.333-110.059,245.333-245.333
				S380.619,0,245.333,0z M245.333,469.333c-123.509,0-224-100.48-224-224s100.491-224,224-224s224,100.48,224,224
				S368.843,469.333,245.333,469.333z"/>
		</g>
	</g>
</g>
</svg>